<svg width="21" height="20" viewBox="0 0 21 20" fill="none" xmlns="http://www.w3.org/2000/svg">
<path d="M18.6667 0C19.2855 0 19.879 0.234126 20.3166 0.650874C20.7542 1.06762 21 1.63285 21 2.22222V17.7778C21 18.3671 20.7542 18.9324 20.3166 19.3491C19.879 19.7659 19.2855 20 18.6667 20H2.33333C1.71449 20 1.121 19.7659 0.683417 19.3491C0.245833 18.9324 0 18.3671 0 17.7778V2.22222C0 1.63285 0.245833 1.06762 0.683417 0.650874C1.121 0.234126 1.71449 0 2.33333 0H18.6667ZM18.0833 17.2222V11.3333C18.0833 10.3727 17.6826 9.45133 16.9694 8.77204C16.2561 8.09274 15.2887 7.71111 14.28 7.71111C13.2883 7.71111 12.1333 8.28889 11.5733 9.15556V7.92222H8.31833V17.2222H11.5733V11.7444C11.5733 10.8889 12.2967 10.1889 13.195 10.1889C13.6282 10.1889 14.0436 10.3528 14.3499 10.6445C14.6563 10.9362 14.8283 11.3319 14.8283 11.7444V17.2222H18.0833ZM4.52667 6.17778C5.04649 6.17778 5.54502 5.98111 5.9126 5.63104C6.28017 5.28098 6.48667 4.80618 6.48667 4.31111C6.48667 3.27778 5.61167 2.43333 4.52667 2.43333C4.00375 2.43333 3.50225 2.63117 3.13249 2.98332C2.76273 3.33547 2.555 3.81309 2.555 4.31111C2.555 5.34444 3.44167 6.17778 4.52667 6.17778ZM6.14833 17.2222V7.92222H2.91667V17.2222H6.14833Z" fill="white"/>
</svg>
